<svg width="25" height="24" viewBox="0 0 25 24" fill="none" xmlns="http://www.w3.org/2000/svg">
<g clip-path="url(#clip0_123_679)">
<path d="M2.71265 9.15527e-05H15.5916C15.87 0.0219666 16.1181 0.0893103 16.3359 0.202123C16.8328 0.459935 17.1556 0.849154 17.3044 1.36978C17.3478 1.52072 17.3708 1.72728 17.3733 1.98947C17.3836 3.01415 17.3866 4.03884 17.3822 5.06353C17.3822 5.08822 17.3834 5.1815 17.3859 5.34337C17.3881 5.48462 17.3819 5.57759 17.3672 5.62228C17.2819 5.87915 17.1233 6.00228 16.8914 5.99165C16.7633 5.98572 16.6558 5.94369 16.5689 5.86556C16.4702 5.7765 16.4208 5.66119 16.4208 5.51962C16.4208 4.33212 16.4208 3.14462 16.4208 1.95712C16.4208 1.57869 16.2778 1.29681 15.9919 1.1115C15.8966 1.04962 15.795 1.00853 15.6872 0.988217C15.5906 0.970092 15.4797 0.961029 15.3544 0.961029C11.2353 0.961029 7.11609 0.961029 2.99671 0.961029C2.76703 0.961029 2.5939 0.982592 2.47734 1.02572C2.21734 1.12228 2.03906 1.30072 1.94249 1.56103C1.89937 1.67728 1.87781 1.85025 1.87781 2.07994C1.87781 8.69275 1.87781 15.3057 1.87781 21.9188C1.87781 22.1498 1.89937 22.3234 1.94249 22.4396C2.03874 22.6996 2.21703 22.8779 2.47734 22.9745C2.59359 23.0176 2.76718 23.0392 2.99812 23.0392C7.10031 23.0392 11.2025 23.0392 15.3047 23.0392C15.5303 23.0392 15.7012 23.0177 15.8175 22.9749C16.0791 22.8784 16.2572 22.7018 16.3519 22.4452C16.3978 22.3212 16.4208 22.1206 16.4208 21.8434C16.4205 20.6402 16.4184 19.4373 16.4147 18.2345C16.4137 18.026 16.4948 17.8746 16.658 17.7802C16.7758 17.7124 16.8967 17.6954 17.0208 17.7292C17.1289 17.7585 17.2155 17.8171 17.2805 17.9049C17.3464 17.994 17.3795 18.0999 17.3798 18.2227C17.3811 19.504 17.3803 20.7852 17.3775 22.0665C17.3759 22.6702 17.1577 23.1615 16.7227 23.5402C16.4052 23.8165 16.0223 23.9698 15.5742 24.0001H2.71874C2.40281 23.9763 2.12734 23.8973 1.89234 23.7629C1.3039 23.4263 0.978745 22.9068 0.91687 22.2043V1.79025C0.964058 1.22275 1.19546 0.767592 1.61109 0.424779C1.91546 0.174154 2.28265 0.0325916 2.71265 9.15527e-05Z" fill="black"/>
<path d="M24.9168 11.8974V12.1201C24.8743 12.2273 24.8343 12.2996 24.7968 12.3371C23.5037 13.6299 22.2107 14.9229 20.9179 16.216C20.7767 16.3573 20.6973 16.4338 20.6798 16.4457C20.6145 16.4904 20.5415 16.5185 20.4609 16.5301C20.3847 16.5407 20.3095 16.5332 20.2354 16.5076C20.0814 16.4538 19.9817 16.3459 19.9364 16.1837C19.8873 16.0087 19.9304 15.8527 20.0657 15.7159C21.1295 14.6387 22.1945 13.5732 23.2607 12.5195C23.287 12.4935 23.2817 12.4806 23.2448 12.4806C18.2189 12.4806 13.1981 12.4806 8.18247 12.4806C8.0684 12.4806 7.96856 12.4487 7.88294 12.3849C7.80075 12.3237 7.74247 12.2431 7.70809 12.1431C7.6634 12.0127 7.67794 11.884 7.75169 11.7568C7.84075 11.6037 7.98434 11.527 8.18247 11.5266C13.1943 11.522 18.2217 11.5196 23.2645 11.5196C23.2879 11.5196 23.2914 11.5113 23.2748 11.4948C22.3017 10.5285 21.3304 9.5593 20.3611 8.58712C20.2611 8.4868 20.1778 8.40055 20.1112 8.32837C20.0093 8.21899 19.949 8.11837 19.9303 8.02649C19.9068 7.91274 19.9247 7.80602 19.9837 7.70633C20.0362 7.61852 20.1123 7.55118 20.212 7.5043C20.4048 7.41337 20.5854 7.45196 20.7539 7.62008C22.0586 8.92477 23.3632 10.2295 24.6679 11.5341C24.7989 11.6654 24.8818 11.7865 24.9168 11.8974Z" fill="black"/>
</g>
<defs>
<clipPath id="clip0_123_679">
<rect width="24" height="24" fill="white" transform="translate(0.91687 9.15527e-05)"/>
</clipPath>
</defs>
</svg>
