<svg width="25" height="24" viewBox="0 0 25 24" fill="none" xmlns="http://www.w3.org/2000/svg">
<g clip-path="url(#clip0_123_675)">
<path d="M11.7009 9.15527e-05H14.1384C14.7569 0.0835291 15.1781 0.385248 15.4022 0.905248C15.4631 1.0465 15.512 1.26056 15.5489 1.54744C15.6189 2.08962 15.6908 2.6315 15.7645 3.17306C15.7654 3.18006 15.7683 3.18669 15.7728 3.19217C15.7774 3.19765 15.7835 3.20175 15.7903 3.204C16.2375 3.35337 16.6737 3.53572 17.0991 3.75103C17.1097 3.75637 17.1217 3.75859 17.1337 3.75743C17.1456 3.75627 17.157 3.75178 17.1666 3.74447C17.6528 3.36447 18.1439 2.9854 18.6398 2.60728C19.0095 2.32603 19.4245 2.23431 19.8848 2.33212C20.1598 2.39087 20.3964 2.51915 20.5945 2.71697C21.1089 3.22978 21.6228 3.74322 22.1362 4.25728C22.6212 4.74259 22.7509 5.28572 22.5253 5.88665C22.4728 6.02697 22.3755 6.19165 22.2333 6.38072C21.8877 6.84009 21.5398 7.2879 21.1898 7.72415C21.1778 7.73929 21.1702 7.75747 21.1679 7.77662C21.1657 7.79577 21.1689 7.81511 21.1772 7.83244C21.3878 8.26681 21.5652 8.69462 21.7092 9.11587C21.7131 9.12698 21.7201 9.13677 21.7293 9.14414C21.7385 9.15151 21.7495 9.15617 21.7612 9.15759C22.2656 9.22197 22.7597 9.28525 23.2434 9.34744C23.6053 9.394 23.8641 9.45072 24.0197 9.51759C24.5428 9.74259 24.8419 10.1726 24.9169 10.8076V13.2334C24.8206 13.8574 24.5152 14.2763 24.0005 14.4901C23.843 14.5557 23.5505 14.6148 23.123 14.6673C22.677 14.7223 22.2203 14.7812 21.7528 14.844C21.7434 14.8453 21.7345 14.8492 21.7272 14.8552C21.7199 14.8613 21.7145 14.8692 21.7116 14.8782C21.5619 15.3195 21.3802 15.7549 21.1664 16.1846C21.1619 16.1938 21.16 16.204 21.161 16.2142C21.162 16.2244 21.1658 16.2341 21.172 16.2423C21.5483 16.7295 21.925 17.2179 22.3022 17.7076C22.4847 17.9442 22.5906 18.194 22.62 18.4571C22.6584 18.8021 22.595 19.1118 22.4297 19.3862C22.365 19.4934 22.162 19.7177 21.8208 20.0593C21.4123 20.4677 21.0039 20.876 20.5955 21.2842C20.3358 21.5442 20.025 21.6856 19.6631 21.7084C19.4753 21.7199 19.2925 21.6984 19.1147 21.6437C18.9316 21.5874 18.765 21.5009 18.615 21.384C17.9125 20.8359 17.4255 20.4587 17.1539 20.2524C17.1484 20.2482 17.1417 20.2456 17.1347 20.245C17.1277 20.2443 17.1205 20.2456 17.1141 20.2487C16.6903 20.4565 16.2497 20.6376 15.7922 20.792C15.7839 20.7946 15.7765 20.7996 15.7709 20.8063C15.7653 20.813 15.7616 20.8212 15.7603 20.8299C15.6934 21.3415 15.6278 21.8552 15.5634 22.3712C15.5228 22.6968 15.4712 22.934 15.4087 23.0827C15.1869 23.6093 14.7616 23.9151 14.1328 24.0001H11.707C11.0845 23.9207 10.6592 23.6195 10.4311 23.0963C10.3695 22.956 10.3211 22.7488 10.2858 22.4748C10.2164 21.9398 10.1462 21.3949 10.0753 20.8402C10.0739 20.8286 10.0693 20.8177 10.0619 20.8086C10.0545 20.7996 10.0447 20.7928 10.0336 20.7892C9.59015 20.6407 9.15562 20.461 8.72999 20.2501C8.72005 20.2452 8.70891 20.2432 8.69787 20.2443C8.68684 20.2455 8.67636 20.2498 8.66765 20.2567C8.25328 20.5829 7.84234 20.9023 7.43484 21.2148C7.16921 21.4182 6.95843 21.5502 6.8025 21.6109C6.38031 21.7749 5.97015 21.747 5.57203 21.527C5.4364 21.452 5.26656 21.3124 5.0625 21.1084C4.70125 20.7471 4.34 20.3859 3.97875 20.0246C3.69593 19.7421 3.53843 19.5795 3.50625 19.5367C3.36406 19.3488 3.27156 19.1368 3.22875 18.9006C3.19718 18.7262 3.19671 18.5556 3.22734 18.3887C3.25859 18.2174 3.3189 18.0546 3.40828 17.9002C3.45546 17.8187 3.55953 17.6732 3.72046 17.4638C4.01921 17.0754 4.33015 16.6734 4.65328 16.2577C4.66226 16.2462 4.66781 16.2324 4.6693 16.2179C4.6708 16.2034 4.66817 16.1888 4.66171 16.1757C4.45515 15.7638 4.27718 15.3329 4.12781 14.8829C4.12444 14.8725 4.11821 14.8633 4.10983 14.8564C4.10145 14.8494 4.09127 14.8449 4.08046 14.8435C3.55796 14.7748 3.04765 14.7093 2.54953 14.6471C2.21921 14.6059 1.97937 14.5537 1.83 14.4906C1.305 14.2693 1.00062 13.8445 0.91687 13.216V10.7785C0.994995 10.1745 1.28812 9.7565 1.79625 9.52462C1.93187 9.46306 2.12453 9.41509 2.37421 9.38072C2.93796 9.30353 3.50046 9.23165 4.06171 9.16509C4.07573 9.16342 4.08898 9.15787 4.09993 9.14908C4.11087 9.14029 4.11907 9.12861 4.12359 9.1154C4.27828 8.66978 4.45593 8.24337 4.65656 7.83619C4.66511 7.81908 4.66859 7.79989 4.6666 7.78087C4.66461 7.76185 4.65722 7.7438 4.64531 7.72884C4.31312 7.30915 3.98328 6.88447 3.65578 6.45478C3.47765 6.22072 3.36031 6.029 3.30375 5.87962C3.14375 5.45931 3.17171 5.05134 3.38765 4.65572C3.45921 4.52478 3.58828 4.36587 3.77484 4.179C4.20609 3.74806 4.63718 3.31697 5.06812 2.88572C5.16437 2.78978 5.24859 2.70962 5.32078 2.64525C5.41265 2.564 5.50796 2.49869 5.60671 2.44931C6.03484 2.23494 6.47843 2.23197 6.9375 2.4404C7.04375 2.48884 7.18656 2.58415 7.36593 2.72634C7.80062 3.07134 8.23859 3.41181 8.67984 3.74775C8.68535 3.75198 8.69199 3.75457 8.69902 3.75523C8.70606 3.75589 8.71321 3.7546 8.71968 3.7515C9.14437 3.54775 9.5839 3.36572 10.0383 3.2054C10.049 3.20159 10.0584 3.19488 10.0655 3.18603C10.0726 3.17717 10.0772 3.16652 10.0786 3.15525C10.1352 2.70587 10.1917 2.2554 10.2483 1.80384C10.3042 1.35697 10.367 1.05228 10.4367 0.889779C10.6542 0.382592 11.0756 0.0860291 11.7009 9.15527e-05ZM5.55843 20.1981C5.70624 20.3534 5.82312 20.4684 5.90906 20.5431C6.15968 20.7602 6.4175 20.7563 6.6825 20.5313C6.84656 20.392 7.36765 19.9896 8.24578 19.3243C8.37921 19.2231 8.48937 19.167 8.57624 19.156C8.70718 19.1401 8.8425 19.1718 8.98218 19.2512C9.36812 19.4702 9.82718 19.6673 10.3594 19.8423C10.6187 19.9276 10.7594 19.9768 10.7812 19.9899C10.9234 20.0756 11.0064 20.2131 11.0302 20.4024C11.1123 21.054 11.1942 21.7057 11.2758 22.3576C11.2977 22.5323 11.3272 22.6554 11.3644 22.727C11.4322 22.8585 11.5355 22.9437 11.6742 22.9824C11.7252 22.9965 11.898 23.0043 12.1927 23.0059C12.7745 23.0084 13.3564 23.0049 13.9383 22.9956C14.0992 22.9931 14.2184 22.9695 14.2959 22.9248C14.4319 22.8467 14.5103 22.7237 14.5312 22.5559C14.6147 21.8806 14.7017 21.2059 14.7923 20.5318C14.7927 20.5299 14.7964 20.4884 14.8036 20.4071C14.8161 20.2699 14.8664 20.1579 14.9545 20.071C15.0133 20.0129 15.1327 19.9552 15.3127 19.8981C15.8698 19.7209 16.4064 19.4938 16.9223 19.217C17.1305 19.1054 17.3227 19.1177 17.4989 19.254C18.0611 19.6877 18.6216 20.1237 19.1803 20.5618C19.4537 20.7762 19.7145 20.7592 19.9627 20.5107C20.4627 20.0107 20.9627 19.5107 21.4627 19.0107C21.6086 18.8648 21.6598 18.7057 21.6164 18.5335C21.5945 18.4482 21.5159 18.3185 21.3806 18.1445C20.9912 17.6448 20.6027 17.1445 20.2148 16.6435C20.0886 16.481 20.0423 16.3195 20.0761 16.1588C20.0808 16.1367 20.1462 15.9965 20.2725 15.7384C20.4572 15.3609 20.6178 14.9734 20.7544 14.5759C20.8516 14.2921 20.9025 14.1465 20.9072 14.139C20.9947 13.994 21.1398 13.9099 21.3427 13.8868C21.6598 13.8509 22.3137 13.7668 23.3044 13.6346C23.5034 13.6081 23.6417 13.5662 23.7192 13.509C23.8536 13.4102 23.9208 13.2627 23.9208 13.0665C23.9208 12.4102 23.9239 11.754 23.9302 11.0977C23.9314 10.9581 23.9205 10.8448 23.8973 10.7579C23.8627 10.627 23.7911 10.5284 23.6827 10.4621C23.618 10.4227 23.5072 10.3927 23.3503 10.3721C22.7116 10.289 22.0728 10.2063 21.4341 10.1242C21.2675 10.1026 21.1545 10.0767 21.0952 10.0463C20.9805 9.98728 20.9028 9.89244 20.8622 9.76181C20.6628 9.11994 20.4245 8.54525 20.1473 8.03775C20.0517 7.86275 20.0348 7.69806 20.0967 7.54368C20.1158 7.4965 20.2042 7.37165 20.362 7.16915C20.7327 6.6929 21.1022 6.21572 21.4706 5.73759C21.5406 5.64697 21.5848 5.57275 21.6033 5.51494C21.632 5.42462 21.6353 5.33525 21.6131 5.24681C21.5922 5.16275 21.5244 5.06181 21.4097 4.944C20.9259 4.44587 20.4347 3.95494 19.9359 3.47119C19.855 3.39275 19.7828 3.34228 19.7194 3.31978C19.6275 3.28697 19.5359 3.28165 19.4447 3.30384C19.37 3.32165 19.2623 3.38509 19.1217 3.49415C18.6598 3.85259 18.1973 4.21056 17.7342 4.56806C17.5395 4.71837 17.4202 4.80259 17.3761 4.82072C17.2283 4.88103 17.0714 4.86634 16.9055 4.77665C16.4177 4.51259 15.9098 4.29556 15.382 4.12556C15.3795 4.12462 15.3291 4.11134 15.2306 4.08572C15.0916 4.04978 14.9839 3.97837 14.9077 3.8715C14.8523 3.794 14.8127 3.65931 14.7886 3.46744C14.7164 2.89181 14.6433 2.3165 14.5692 1.7415C14.5405 1.51681 14.5234 1.3954 14.5181 1.37728C14.4791 1.24384 14.4002 1.14275 14.2814 1.074C14.2064 1.03025 14.0967 1.00697 13.9523 1.00415C13.2433 0.989467 12.5344 0.989779 11.8256 1.00509C11.7212 1.00728 11.6394 1.02369 11.58 1.05431C11.4991 1.0965 11.4342 1.15462 11.3855 1.22869C11.3417 1.29587 11.3091 1.41134 11.2875 1.57509C11.2037 2.21603 11.1216 2.85712 11.0409 3.49837C11.0203 3.664 10.9887 3.7804 10.9462 3.84759C10.8772 3.95634 10.7736 4.03134 10.6355 4.07259C10.1139 4.22822 9.61015 4.4279 9.12421 4.67165C9.12265 4.67228 9.0689 4.70384 8.96296 4.76634C8.83359 4.84228 8.70015 4.8679 8.56265 4.84322C8.47046 4.82665 8.35421 4.764 8.2139 4.65525C7.6839 4.24431 7.1539 3.83322 6.6239 3.42197C6.47265 3.30447 6.31812 3.26603 6.16031 3.30665C6.07593 3.32853 5.97703 3.39447 5.86359 3.50447C5.29078 4.05978 4.78734 4.56447 4.35328 5.01853C4.23015 5.14759 4.18281 5.28853 4.21125 5.44134C4.22718 5.52853 4.29328 5.64697 4.40953 5.79665C4.74015 6.2229 5.07015 6.64978 5.39953 7.07728C5.59828 7.3354 5.70328 7.47619 5.71453 7.49962C5.80078 7.67931 5.7864 7.86962 5.6714 8.07056C5.62171 8.15744 5.59625 8.20197 5.595 8.20415C5.34468 8.68915 5.14234 9.194 4.98796 9.71869C4.94609 9.86087 4.8689 9.96572 4.7564 10.0332C4.6914 10.0723 4.57312 10.1031 4.40156 10.1256C3.72156 10.2146 3.0414 10.3013 2.36109 10.3857C2.19328 10.4067 2.06984 10.4871 1.99078 10.6271C1.94703 10.7043 1.9239 10.8193 1.9214 10.9721C1.91046 11.6662 1.90734 12.3604 1.91203 13.0548C1.91328 13.2595 1.98296 13.412 2.12109 13.5123C2.19734 13.5679 2.33109 13.6081 2.52234 13.6327C3.15984 13.7143 3.79718 13.796 4.43437 13.8779C4.58281 13.897 4.6875 13.9235 4.74843 13.9576C4.85312 14.0167 4.92453 14.1054 4.96265 14.2238C5.17015 14.8657 5.40906 15.4488 5.67937 15.9732C5.7325 16.0767 5.76187 16.1609 5.7675 16.2259C5.77562 16.3231 5.75921 16.414 5.71828 16.4987C5.70671 16.5227 5.63031 16.6257 5.48906 16.8076C5.12562 17.2763 4.76265 17.7454 4.40015 18.2148C4.29265 18.3538 4.22968 18.4634 4.21125 18.5434C4.17781 18.6868 4.21156 18.8192 4.3125 18.9404C4.44375 19.0985 4.74359 19.4013 5.21203 19.8488C5.31546 19.9476 5.43093 20.064 5.55843 20.1981Z" fill="black"/>
<path d="M17.9119 11.9996C17.9119 13.3246 17.3855 14.5954 16.4486 15.5323C15.5117 16.4692 14.2409 16.9956 12.9159 16.9956C11.5909 16.9956 10.3202 16.4692 9.38326 15.5323C8.44634 14.5954 7.91998 13.3246 7.91998 11.9996C7.91998 10.6746 8.44634 9.40389 9.38326 8.46697C10.3202 7.53005 11.5909 7.00369 12.9159 7.00369C14.2409 7.00369 15.5117 7.53005 16.4486 8.46697C17.3855 9.40389 17.9119 10.6746 17.9119 11.9996ZM16.913 11.9996C16.913 10.9396 16.4918 9.92289 15.7422 9.1733C14.9927 8.42371 13.976 8.0026 12.9159 8.0026C11.8558 8.0026 10.8392 8.42371 10.0896 9.1733C9.34 9.92289 8.91889 10.9396 8.91889 11.9996C8.91889 13.0597 9.34 14.0764 10.0896 14.826C10.8392 15.5755 11.8558 15.9967 12.9159 15.9967C13.976 15.9967 14.9927 15.5755 15.7422 14.826C16.4918 14.0764 16.913 13.0597 16.913 11.9996Z" fill="black"/>
</g>
<defs>
<clipPath id="clip0_123_675">
<rect width="24" height="24" fill="white" transform="translate(0.91687 9.15527e-05)"/>
</clipPath>
</defs>
</svg>
