<svg width="63" height="60" viewBox="0 0 63 60" fill="none" xmlns="http://www.w3.org/2000/svg">
<circle cx="30.8182" cy="30" r="30" fill="#133D7A"/>
<path d="M28.5409 37L27.1444 33.0352H21.6854L20.2889 37H17.8182L23.1307 22.6641H25.7284L31.0311 37H28.5409ZM26.5389 31.0234L25.1815 27.1172C25.1294 26.9479 25.0546 26.7103 24.9569 26.4043C24.8593 26.0918 24.7616 25.776 24.6639 25.457C24.5663 25.1315 24.4849 24.8581 24.4198 24.6367C24.3547 24.9036 24.2733 25.2031 24.1757 25.5352C24.0845 25.8607 23.9934 26.1667 23.9022 26.4531C23.8176 26.7396 23.7525 26.9609 23.7069 27.1172L22.3397 31.0234H26.5389ZM43.8046 37H41.1093L36.6659 30.5156L35.2596 31.6582V37H32.9159V22.7227H35.2596V29.5488C35.5461 29.1973 35.8358 28.8457 36.1288 28.4941C36.4218 28.1426 36.7147 27.791 37.0077 27.4395L41.0311 22.7227H43.6776L38.3456 28.9727L43.8046 37Z" fill="white"/>
</svg>
