<svg width="20" height="21" viewBox="0 0 20 21" fill="none" xmlns="http://www.w3.org/2000/svg">
<path d="M20 9.18859V9.23741C19.9672 9.46892 19.85 9.62153 19.6484 9.69523C19.5831 9.71919 19.5167 9.72921 19.4492 9.72531C19.3742 9.72088 19.3079 9.70317 19.2504 9.67218C19.1926 9.64067 19.1099 9.58468 19.0023 9.50421C18.8492 9.38911 18.7695 9.32934 18.7633 9.32491C15.8581 7.19861 12.9458 5.06684 10.0266 2.9296C10.0192 2.92426 10.0103 2.92139 10.0012 2.92139C9.99206 2.92139 9.98317 2.92426 9.97578 2.9296C7.00286 5.10486 4.03464 7.27817 1.07109 9.44952C0.889583 9.58234 0.788151 9.65408 0.766797 9.66476C0.643359 9.72622 0.513802 9.7378 0.378125 9.69952C0.274219 9.6701 0.190104 9.61684 0.125781 9.53976C0.0588542 9.45955 0.0169271 9.36372 0 9.25226V9.16437C0.0208333 9.00577 0.0916667 8.88208 0.2125 8.79327C2.69089 6.96958 5.83021 4.67153 9.63047 1.89913C9.74036 1.81893 9.83333 1.77283 9.90937 1.76085C10.063 1.73689 10.2145 1.7796 10.3637 1.88898C13.4879 4.17439 16.6113 6.46111 19.734 8.74913C19.8941 8.86658 19.9828 9.01307 20 9.18859Z" fill="white"/>
<path d="M3.27148 18.5394L7.37148 18.5324C7.37908 18.5323 7.38633 18.5292 7.39167 18.5239C7.39701 18.5185 7.4 18.5114 7.4 18.5039C7.40286 17.0015 7.40365 15.494 7.40234 13.9812C7.40208 13.6057 7.4875 13.2437 7.65859 12.8953C7.7737 12.6609 7.92044 12.447 8.09883 12.2535C8.43477 11.8891 8.84388 11.6415 9.32617 11.5105C9.75768 11.3933 10.1898 11.3894 10.6227 11.4988C10.8768 11.5631 11.1163 11.663 11.341 11.7984C11.7309 12.0328 12.0391 12.3502 12.2656 12.7507C12.4872 13.1424 12.598 13.5753 12.598 14.0496C12.5978 15.5371 12.5977 17.0248 12.5977 18.5128C12.5977 18.5157 12.5982 18.5185 12.5993 18.5211C12.6004 18.5237 12.602 18.526 12.6039 18.528C12.6059 18.53 12.6083 18.5316 12.6109 18.5327C12.6135 18.5338 12.6163 18.5343 12.6191 18.5343L16.7273 18.532C16.7354 18.532 16.7432 18.5288 16.7489 18.5231C16.7546 18.5173 16.7578 18.5096 16.7578 18.5015C16.7578 15.7992 16.7578 13.1057 16.7578 10.421C16.7578 10.2385 16.7768 10.1084 16.8148 10.0308C16.8628 9.93315 16.9363 9.85841 17.0355 9.80659C17.1241 9.7605 17.2223 9.74331 17.3301 9.75503C17.5254 9.77612 17.6611 9.8713 17.7371 10.0406C17.7743 10.1231 17.793 10.2532 17.793 10.4308C17.793 13.2097 17.793 15.9888 17.793 18.7679C17.793 18.7697 17.7944 18.8209 17.7973 18.9214C17.8072 19.2743 17.673 19.4854 17.3949 19.5546C17.3355 19.5695 17.1186 19.5769 16.7441 19.5769C15.2759 19.5769 13.8077 19.5769 12.3395 19.5769C12.104 19.5769 11.9464 19.5597 11.8664 19.5253C11.7484 19.4748 11.6632 19.3882 11.6105 19.2656C11.5785 19.1911 11.5626 19.0772 11.5629 18.9238C11.5668 17.3191 11.5639 15.7145 11.5543 14.1101C11.553 13.9091 11.5354 13.747 11.5016 13.6238C11.3797 13.1811 11.1234 12.8571 10.7328 12.6519C10.4979 12.5285 10.2479 12.4665 9.98281 12.466C9.5224 12.4649 9.13346 12.647 8.81602 13.0121C8.56419 13.3016 8.43815 13.654 8.43789 14.0691C8.43763 15.7066 8.4375 17.344 8.4375 18.9812C8.4375 19.2794 8.30729 19.4714 8.04688 19.5574C7.98672 19.5772 7.89232 19.5868 7.76367 19.5863C6.16706 19.5803 4.57044 19.5772 2.97383 19.5769C2.74206 19.5769 2.58503 19.5583 2.50273 19.521C2.38607 19.4682 2.30247 19.38 2.25195 19.2566C2.22201 19.1832 2.20703 19.0691 2.20703 18.9144C2.20703 16.0884 2.20703 13.2623 2.20703 10.4363C2.20703 10.3597 2.20833 10.295 2.21094 10.2421C2.21458 10.1736 2.22969 10.1115 2.25625 10.0558C2.35807 9.84305 2.51784 9.7424 2.73555 9.75386C2.89388 9.76219 3.02018 9.81987 3.11445 9.9269C3.18477 10.0071 3.22682 10.1031 3.24062 10.2148C3.24167 10.2244 3.24219 10.3266 3.24219 10.5214C3.24219 13.1725 3.24219 15.8354 3.24219 18.5101C3.24219 18.5179 3.24527 18.5253 3.25077 18.5308C3.25626 18.5363 3.26371 18.5394 3.27148 18.5394Z" fill="white"/>
</svg>
