<svg width="20" height="21" viewBox="0 0 20 21" fill="none" xmlns="http://www.w3.org/2000/svg">
<path d="M20 11.3766V11.6695C19.9273 12.9914 19.4241 14.1124 18.4902 15.0324C18.4814 15.0413 18.4761 15.0529 18.4754 15.0653C18.4624 15.3212 18.4595 15.5297 18.4668 15.6906C18.5017 16.4547 18.2307 17.0594 17.6539 17.5047C17.4289 17.6781 17.1746 17.796 16.891 17.8582C16.7405 17.891 16.4814 17.9074 16.1137 17.9074C14.7129 17.9074 13.3122 17.9074 11.9117 17.9074C11.799 17.9074 11.718 17.8948 11.6687 17.8695C11.5818 17.8245 11.5336 17.7485 11.5242 17.6414C11.5193 17.5875 11.5275 17.5386 11.5488 17.4945C11.5723 17.4456 11.6061 17.4063 11.6504 17.3766C11.6947 17.3469 11.7579 17.33 11.8402 17.3258C11.8957 17.3229 11.9626 17.3215 12.041 17.3215C13.3465 17.3215 14.6518 17.3215 15.957 17.3215C16.3781 17.3215 16.6379 17.3113 16.7363 17.291C17.0441 17.2275 17.3085 17.0685 17.5293 16.8141C17.7587 16.549 17.8754 16.2396 17.8793 15.886C17.8803 15.7784 17.8809 15.6616 17.8809 15.5356C17.8809 15.5215 17.8749 15.5184 17.8629 15.5262C16.966 16.1153 15.996 16.3904 14.9527 16.3516C14.6876 16.3417 14.4293 16.3111 14.1777 16.2598C13.5543 16.1319 12.9669 15.8863 12.4156 15.5231C12.4095 15.519 12.4021 15.5172 12.3947 15.5179C12.3874 15.5187 12.3805 15.5221 12.3754 15.5274L11.7883 16.1145C11.7832 16.1194 11.7795 16.1255 11.7774 16.1322C11.7753 16.139 11.7748 16.1462 11.7762 16.1531C11.8043 16.3057 11.79 16.4445 11.7332 16.5695C11.7004 16.6414 11.6163 16.7452 11.4809 16.8809C10.8303 17.533 10.179 18.1844 9.52695 18.8352C9.27227 19.0891 9.12852 19.2285 9.0957 19.2535C8.92747 19.3806 8.73776 19.4589 8.52656 19.4883C8.32734 19.5164 8.13385 19.4974 7.94609 19.4313C7.74687 19.3612 7.58112 19.2479 7.44883 19.0914C7.24857 18.855 7.14844 18.5873 7.14844 18.2883C7.14844 18.0748 7.19948 17.8793 7.30156 17.702C7.35495 17.6093 7.48294 17.4603 7.68555 17.2551C8.41055 16.5212 9.13906 15.7908 9.87109 15.0637C10.0458 14.8903 10.2497 14.8271 10.4828 14.8742C10.4944 14.8765 10.5063 14.876 10.5175 14.8726C10.5287 14.8693 10.539 14.8633 10.5473 14.8551L11.123 14.2746C11.1286 14.2691 11.132 14.2619 11.1327 14.254C11.1334 14.2462 11.1314 14.2383 11.127 14.2317C10.5738 13.4072 10.2951 12.5031 10.2906 11.5195C10.2906 11.5121 10.2877 11.5049 10.2824 11.4997C10.2771 11.4944 10.27 11.4914 10.2625 11.4914H5.42227C5.41811 11.4914 5.414 11.4922 5.41016 11.4938C5.40632 11.4954 5.40283 11.4978 5.39989 11.5007C5.39695 11.5036 5.39462 11.5071 5.39303 11.511C5.39144 11.5148 5.39062 11.5189 5.39062 11.5231C5.39062 11.7311 5.39062 11.9324 5.39062 12.127C5.39062 12.4668 5.38555 12.6679 5.37539 12.7301C5.33477 12.9793 5.22227 13.1878 5.03789 13.3555C4.89518 13.4852 4.7332 13.5741 4.55195 13.6223C4.3582 13.6736 4.16654 13.6689 3.97695 13.6082C3.59336 13.4853 3.3474 13.2432 3.23906 12.882C3.20234 12.7591 3.18398 12.5595 3.18398 12.2832C3.18424 12.0233 3.18333 11.7634 3.18125 11.5035C3.18128 11.4982 3.17934 11.4931 3.17581 11.4891C3.17227 11.4851 3.16739 11.4826 3.16211 11.482C2.07956 11.3685 1.23047 10.8767 0.614844 10.0067C0.595573 9.97931 0.585938 9.98231 0.585938 10.0156C0.585938 11.7966 0.585938 13.5744 0.585938 15.3488C0.585938 15.7754 0.594141 16.0354 0.610547 16.1289C0.672526 16.4818 0.845052 16.7727 1.12812 17.0016C1.26276 17.1104 1.40547 17.1909 1.55625 17.243C1.71406 17.2977 1.87891 17.3246 2.05078 17.3238C3.43385 17.3176 4.8168 17.3197 6.19961 17.3301C6.30977 17.3311 6.39128 17.3492 6.44414 17.3844C6.54232 17.4495 6.57852 17.549 6.55273 17.6828C6.53451 17.7779 6.48372 17.8434 6.40039 17.8793C6.35664 17.8981 6.28099 17.9074 6.17344 17.9074C4.89349 17.9074 3.61354 17.9074 2.33359 17.9074C1.97214 17.9074 1.71328 17.8892 1.55703 17.8528C1.26224 17.784 0.997917 17.655 0.764062 17.4656C0.297396 17.0878 0.0427083 16.5865 0 15.9617V6.75275C0.0466146 6.12306 0.307812 5.62007 0.783594 5.24377C1.00312 5.07033 1.2526 4.94819 1.53203 4.87736C1.67682 4.84038 1.88125 4.82085 2.14531 4.81877C3.27422 4.80965 4.41107 4.80731 5.55586 4.81174C5.56107 4.81179 5.56625 4.81081 5.57108 4.80885C5.57591 4.80689 5.5803 4.80399 5.58401 4.80032C5.58772 4.79665 5.59066 4.79228 5.59266 4.78747C5.59467 4.78266 5.5957 4.7775 5.5957 4.77228C5.5957 4.52827 5.5957 4.2827 5.5957 4.03556C5.5957 3.72645 5.61042 3.50275 5.63984 3.36447C5.68906 3.13244 5.77604 2.92228 5.90078 2.734C6.30625 2.12254 6.89141 1.81551 7.65625 1.81291C8.68047 1.80926 9.70456 1.81174 10.7285 1.82033C11.0087 1.82293 11.2245 1.84286 11.3758 1.8801C11.9411 2.0202 12.3672 2.35692 12.6539 2.89025C12.7784 3.12202 12.8508 3.38166 12.8711 3.66916C12.881 3.809 12.885 4.18244 12.8832 4.78947C12.8832 4.79475 12.8852 4.79982 12.8888 4.80356C12.8924 4.80729 12.8973 4.80939 12.9023 4.80939C14.5297 4.81382 15.5219 4.8146 15.8789 4.81174C16.0607 4.81017 16.2293 4.81122 16.3848 4.81486C16.5905 4.81981 16.7582 4.837 16.8879 4.86642C17.3035 4.96096 17.6533 5.16486 17.9371 5.47814C18.3147 5.89507 18.4913 6.39885 18.4668 6.98947C18.4579 7.20015 18.4609 7.52241 18.4758 7.95627C18.4763 7.9688 18.4816 7.98068 18.4906 7.98947C19.4362 8.91291 19.9393 10.0419 20 11.3766ZM12.2832 4.78361C12.2944 4.53674 12.2986 4.29559 12.2957 4.06017C12.2915 3.73804 12.2641 3.49963 12.2133 3.34494C12.1138 3.04129 11.9221 2.79859 11.6383 2.61681C11.5221 2.5426 11.393 2.48674 11.2508 2.44924C11.1505 2.42293 11.012 2.40874 10.8352 2.40666C9.77109 2.39416 8.7069 2.39416 7.64258 2.40666C7.45586 2.40874 7.31016 2.42411 7.20547 2.45275C7.05573 2.49338 6.92031 2.55458 6.79922 2.63635C6.50938 2.8327 6.32031 3.09364 6.23203 3.41916C6.19922 3.54025 6.18294 3.73478 6.1832 4.00275C6.18346 4.26239 6.18047 4.52254 6.17422 4.78322C6.17411 4.78693 6.17476 4.79062 6.17613 4.79407C6.1775 4.79753 6.17955 4.80068 6.18218 4.80333C6.1848 4.80599 6.18793 4.80811 6.1914 4.80955C6.19486 4.81099 6.19858 4.81174 6.20234 4.81174H6.7707C6.78023 4.81174 6.78938 4.80795 6.79611 4.80121C6.80285 4.79447 6.80664 4.78533 6.80664 4.7758C6.80664 4.5771 6.80664 4.37892 6.80664 4.18127C6.80664 3.85366 6.81536 3.65653 6.83281 3.58986C6.87344 3.43596 6.95742 3.30783 7.08477 3.20549C7.17852 3.13023 7.2888 3.08036 7.41562 3.05588C7.52109 3.03556 7.64362 3.02515 7.7832 3.02463C8.79518 3.0202 9.80729 3.0228 10.8195 3.03244C10.9755 3.034 11.0971 3.05249 11.1844 3.08791C11.3786 3.16629 11.5169 3.30093 11.5992 3.49181C11.6398 3.58582 11.6621 3.72033 11.666 3.89533C11.6728 4.18674 11.673 4.484 11.6668 4.78713C11.6667 4.79034 11.6673 4.79353 11.6685 4.79651C11.6697 4.7995 11.6715 4.80221 11.6738 4.80451C11.676 4.8068 11.6787 4.80861 11.6817 4.80986C11.6846 4.8111 11.6878 4.81174 11.691 4.81174H12.2539C12.2615 4.81174 12.2688 4.80882 12.2742 4.80357C12.2797 4.79833 12.2829 4.79118 12.2832 4.78361ZM10.9984 3.64728C10.9401 3.61603 10.8702 3.60223 10.7887 3.60588C10.716 3.60874 10.6784 3.61017 10.6758 3.61017C9.64974 3.60575 8.62357 3.60887 7.59727 3.61955C7.52956 3.62033 7.48138 3.63361 7.45273 3.65939C7.41263 3.69533 7.39258 3.74741 7.39258 3.81564C7.39258 4.12502 7.39258 4.45262 7.39258 4.79846C7.39258 4.8002 7.39292 4.80193 7.39359 4.80354C7.39426 4.80515 7.39523 4.80661 7.39647 4.80785C7.3977 4.80908 7.39917 4.81006 7.40078 4.81073C7.40239 4.81139 7.40412 4.81174 7.40586 4.81174H11.0523C11.0607 4.81174 11.0688 4.8084 11.0747 4.80247C11.0807 4.79654 11.084 4.78849 11.084 4.7801C11.084 4.44312 11.0842 4.12163 11.0848 3.81564C11.0848 3.73413 11.056 3.67801 10.9984 3.64728ZM1.84648 10.4051C2.22539 10.6697 2.65325 10.831 3.13008 10.8891C3.1373 10.89 3.14463 10.8892 3.15154 10.8869C3.15845 10.8846 3.16477 10.8808 3.17006 10.8758C3.17536 10.8708 3.17949 10.8646 3.18216 10.8578C3.18484 10.851 3.18599 10.8437 3.18555 10.8363C3.16367 10.5001 3.24427 10.215 3.42734 9.98088C3.52891 9.85119 3.65365 9.74859 3.80156 9.67306C3.95755 9.59312 4.1194 9.55471 4.28711 9.55783C4.64648 9.56434 4.93229 9.70132 5.14453 9.96877C5.24349 10.0935 5.31263 10.2315 5.35195 10.3828C5.39102 10.5326 5.40339 10.6901 5.38906 10.8555C5.38852 10.8619 5.38931 10.8683 5.39138 10.8743C5.39346 10.8804 5.39677 10.8859 5.4011 10.8906C5.40544 10.8953 5.4107 10.8991 5.41657 10.9016C5.42243 10.9042 5.42876 10.9055 5.43516 10.9055H10.2902C10.3003 10.9055 10.31 10.9019 10.3177 10.8953C10.3253 10.8887 10.3302 10.8795 10.3316 10.8695C10.4824 9.79455 10.9342 8.8715 11.6871 8.10041C12.3025 7.46994 13.0421 7.04051 13.9059 6.81213C14.1564 6.74598 14.4126 6.70106 14.6746 6.67736C15.8204 6.57398 16.8805 6.84038 17.8547 7.47658C17.8656 7.48387 17.8715 7.48114 17.8723 7.46838C17.8767 7.37593 17.8796 7.187 17.8809 6.90158C17.8827 6.53648 17.7763 6.21942 17.5617 5.95041C17.3062 5.63036 16.973 5.45093 16.5621 5.41213C16.4598 5.40249 16.3036 5.39767 16.0938 5.39767C11.5104 5.39767 6.92708 5.39572 2.34375 5.39181C2.15547 5.39155 2.00573 5.39676 1.89453 5.40744C1.59297 5.43609 1.32201 5.55249 1.08164 5.75666C0.746745 6.04077 0.580599 6.42241 0.583203 6.90158C0.585026 7.25314 0.585677 7.60471 0.585156 7.95627C0.583854 9.0008 1.0043 9.81707 1.84648 10.4051ZM19.4117 11.507C19.4117 10.3752 18.9621 9.28974 18.1618 8.48942C17.3614 7.68909 16.276 7.23947 15.1441 7.23947C14.0123 7.23947 12.9268 7.68909 12.1265 8.48942C11.3262 9.28974 10.8766 10.3752 10.8766 11.507C10.8766 12.6389 11.3262 13.7244 12.1265 14.5247C12.9268 15.325 14.0123 15.7746 15.1441 15.7746C16.276 15.7746 17.3614 15.325 18.1618 14.5247C18.9621 13.7244 19.4117 12.6389 19.4117 11.507ZM4.59141 10.2496C4.49922 10.1824 4.4 10.1482 4.29375 10.1469C4.19245 10.1456 4.09688 10.1744 4.00703 10.2332C3.90495 10.3001 3.83555 10.3918 3.79883 10.5082C3.7793 10.5702 3.76953 10.6797 3.76953 10.8367C3.76953 11.1026 3.76953 11.3654 3.76953 11.625C3.76953 11.631 3.77192 11.6368 3.77617 11.641C3.78042 11.6453 3.78618 11.6477 3.79219 11.6477H4.78555C4.78806 11.6477 4.79055 11.6472 4.79287 11.6462C4.79519 11.6453 4.7973 11.6438 4.79908 11.6421C4.80086 11.6403 4.80227 11.6382 4.80323 11.6359C4.80419 11.6335 4.80469 11.631 4.80469 11.6285C4.80469 11.3059 4.80234 10.9802 4.79766 10.6516C4.79531 10.482 4.72656 10.3481 4.59141 10.2496ZM3.99258 12.9672C4.09362 13.0386 4.20104 13.0714 4.31484 13.0656C4.42188 13.0602 4.52044 13.022 4.61055 12.9512C4.7569 12.8366 4.8237 12.6722 4.81094 12.4578C4.80677 12.3896 4.80469 12.3262 4.80469 12.2676C4.80469 12.2586 4.80111 12.2499 4.79473 12.2436C4.78836 12.2372 4.77972 12.2336 4.7707 12.2336H3.79531C3.78882 12.2336 3.78257 12.2361 3.77791 12.2407C3.77324 12.2452 3.77052 12.2513 3.77031 12.2578C3.76615 12.3948 3.76914 12.5235 3.7793 12.6438C3.78971 12.7664 3.86081 12.8742 3.99258 12.9672ZM11.9128 15.1585C11.916 15.1553 11.9178 15.1509 11.9178 15.1464C11.9178 15.1418 11.916 15.1375 11.9128 15.1342L11.5165 14.7394C11.5149 14.7378 11.513 14.7365 11.511 14.7357C11.5089 14.7348 11.5066 14.7344 11.5044 14.7344C11.5021 14.7344 11.4999 14.7348 11.4978 14.7357C11.4957 14.7366 11.4938 14.7378 11.4922 14.7394L11.0075 15.2259C11.0043 15.2291 11.0025 15.2335 11.0025 15.238C11.0025 15.2426 11.0043 15.247 11.0075 15.2502L11.4038 15.645C11.4054 15.6466 11.4073 15.6479 11.4094 15.6487C11.4114 15.6496 11.4137 15.65 11.4159 15.65C11.4182 15.65 11.4204 15.6496 11.4225 15.6487C11.4246 15.6478 11.4265 15.6466 11.4281 15.645L11.9128 15.1585ZM10.3902 15.4695C10.3839 15.4632 10.3764 15.4583 10.3681 15.4549C10.3598 15.4516 10.3509 15.4499 10.3419 15.4501C10.3328 15.4502 10.3238 15.4522 10.3155 15.4558C10.3071 15.4594 10.2994 15.4646 10.293 15.4711L10.0137 15.75C10.0062 15.7576 10.002 15.7679 10.002 15.7785C10.002 15.7892 10.0062 15.7994 10.0137 15.807L10.8566 16.6496C10.8586 16.6516 10.8609 16.6532 10.8634 16.6543C10.8659 16.6555 10.8686 16.6561 10.8713 16.6561C10.874 16.6562 10.8766 16.6557 10.8791 16.6548C10.8815 16.6538 10.8837 16.6523 10.8855 16.6504L11.1992 16.3324C11.2063 16.3252 11.2101 16.3154 11.2099 16.3052C11.2097 16.295 11.2054 16.2851 11.198 16.2778L10.3902 15.4695ZM7.98789 18.7856C8.1819 18.9262 8.3832 18.9543 8.5918 18.8699C8.64935 18.8468 8.71003 18.8087 8.77383 18.7559C8.82956 18.7095 8.88307 18.6606 8.93437 18.609C9.43307 18.1087 9.93568 17.6054 10.4422 17.0988C10.4444 17.0967 10.4462 17.0942 10.4473 17.0913C10.4485 17.0885 10.4492 17.0855 10.4492 17.0824C10.4492 17.0793 10.4485 17.0762 10.4473 17.0733C10.4462 17.0705 10.4444 17.0678 10.4422 17.0656L9.59961 16.2231C9.59576 16.2192 9.5912 16.2162 9.58617 16.2141C9.58114 16.212 9.57575 16.2109 9.57031 16.2109C9.56487 16.2109 9.55948 16.212 9.55445 16.2141C9.54943 16.2162 9.54486 16.2192 9.54102 16.2231C9.00221 16.7616 8.46758 17.293 7.93711 17.8172C7.79779 17.955 7.73021 18.1185 7.73438 18.3078C7.7388 18.507 7.82331 18.6663 7.98789 18.7856Z" fill="white" fill-opacity="0.74"/>
<path d="M12.4293 13.734C11.8069 12.985 11.5473 12.1103 11.6504 11.1097C11.7288 10.3485 12.0421 9.6755 12.5902 9.0906C13.1652 8.47732 13.872 8.11925 14.7106 8.01639C14.9673 7.98487 15.2271 7.98266 15.4899 8.00974C16.5323 8.11652 17.3692 8.59894 18.0004 9.45701C18.2561 9.80441 18.4404 10.1991 18.5531 10.641C18.5794 10.7446 18.5869 10.8252 18.5754 10.8828C18.5556 10.9807 18.4981 11.0476 18.4027 11.0836C18.3374 11.1083 18.2737 11.1125 18.2117 11.0961C18.1409 11.0773 18.0867 11.0355 18.0492 10.9707C18.0193 10.9186 17.9906 10.8411 17.9633 10.7383C17.8128 10.1732 17.5182 9.69842 17.0797 9.31404C16.5706 8.86769 15.988 8.62368 15.332 8.58201C15.0719 8.56534 14.8129 8.58318 14.5551 8.63553C13.8973 8.76938 13.3465 9.09685 12.9027 9.61795C12.6543 9.90987 12.4714 10.2394 12.3539 10.6066C12.2758 10.8504 12.2304 11.106 12.2176 11.3734C12.1845 12.0635 12.3723 12.686 12.7809 13.241C13.2215 13.84 13.8033 14.2164 14.5262 14.3703C14.785 14.4255 15.0438 14.4465 15.3024 14.4332C15.9128 14.4019 16.4606 14.1966 16.9457 13.8172C17.4686 13.4083 17.8164 12.8765 17.9891 12.2219C18.0175 12.1146 18.0473 12.042 18.0785 12.0043C18.1387 11.9316 18.2176 11.8996 18.3152 11.9082C18.3986 11.9155 18.4647 11.9469 18.5137 12.0023C18.5507 12.0442 18.5733 12.0944 18.5817 12.1527C18.5871 12.1923 18.582 12.245 18.5664 12.3109C18.443 12.8364 18.2137 13.3044 17.8785 13.7148C17.3686 14.3388 16.7292 14.7422 15.9602 14.925C15.7086 14.9849 15.4505 15.016 15.186 15.0183C14.3615 15.0259 13.6289 14.779 12.9883 14.2777C12.7839 14.1176 12.5975 13.9363 12.4293 13.734Z" fill="white" fill-opacity="0.74"/>
</svg>
