<svg width="20" height="21" viewBox="0 0 20 21" fill="none" xmlns="http://www.w3.org/2000/svg">
<g clip-path="url(#clip0_1_1027)">
<path d="M9.8462 0.660889H10.1587C11.6134 0.734847 12.8284 1.27873 13.8036 2.29253C13.9872 2.48315 14.1534 2.68315 14.3021 2.89253C14.857 3.673 15.1743 4.5437 15.254 5.50464C15.3342 6.47287 15.1552 7.4006 14.7169 8.28784C14.3245 9.08211 13.7556 9.73953 13.0103 10.2601C12.7959 10.4098 12.5721 10.5421 12.3388 10.657C11.388 11.125 10.3823 11.293 9.32159 11.1613C9.0656 11.1292 8.81092 11.0763 8.55753 11.0023C7.21404 10.6093 6.18201 9.8144 5.46144 8.61753C4.98696 7.82899 4.74282 6.96076 4.72902 6.01284C4.72537 5.75451 4.74165 5.49474 4.77784 5.23354C4.96222 3.90021 5.56443 2.7967 6.58448 1.923C7.50454 1.13524 8.59178 0.714535 9.8462 0.660889ZM14.0989 5.93394C14.0989 4.84686 13.6671 3.80431 12.8984 3.03563C12.1297 2.26695 11.0872 1.83511 10.0001 1.83511C8.91303 1.83511 7.87048 2.26695 7.1018 3.03563C6.33312 3.80431 5.90128 4.84686 5.90128 5.93394C5.90128 7.02101 6.33312 8.06357 7.1018 8.83224C7.87048 9.60092 8.91303 10.0328 10.0001 10.0328C11.0872 10.0328 12.1297 9.60092 12.8984 8.83224C13.6671 8.06357 14.0989 7.02101 14.0989 5.93394Z" fill="white" fill-opacity="0.74"/>
<path d="M18.2593 20.6606H1.73587C1.43874 20.5869 1.26699 20.4252 1.22064 20.1754C1.20735 20.1046 1.2123 19.8935 1.23548 19.5422C1.32897 18.1368 1.77962 16.8523 2.58743 15.6887C3.23066 14.7624 4.03561 14.0084 5.00228 13.4266C5.92728 12.8701 6.9459 12.5346 8.05814 12.42C8.25397 12.3999 8.51387 12.3882 8.83782 12.3848C9.59616 12.3767 10.3546 12.3731 11.1132 12.3739C12.5528 12.3752 13.8719 12.7408 15.0706 13.4708C15.9141 13.9843 16.639 14.6435 17.2452 15.4485C17.4028 15.6573 17.5484 15.8732 17.682 16.0961C18.3749 17.2521 18.7426 18.5111 18.7851 19.8731C18.7913 20.0773 18.7719 20.2281 18.7269 20.3254C18.6433 20.5059 18.4874 20.6176 18.2593 20.6606ZM15.2874 15.0661C14.1132 14.0739 12.7348 13.5718 11.1523 13.5598C10.3937 13.5541 9.63522 13.5514 8.87689 13.5516C7.74876 13.5521 6.7011 13.8201 5.73392 14.3555C5.50657 14.4816 5.2873 14.6217 5.0761 14.7758C4.23574 15.3891 3.57611 16.1657 3.0972 17.1055C2.71829 17.849 2.49043 18.6313 2.4136 19.4524C2.41317 19.457 2.41369 19.4617 2.41514 19.4661C2.4166 19.4705 2.41894 19.4745 2.42204 19.4779C2.42513 19.4814 2.42889 19.4841 2.43309 19.4859C2.43729 19.4878 2.44183 19.4888 2.44642 19.4887H17.5581C17.5621 19.4888 17.5661 19.4879 17.5697 19.4863C17.5734 19.4847 17.5766 19.4823 17.5793 19.4793C17.582 19.4764 17.5841 19.4728 17.5853 19.469C17.5866 19.4652 17.587 19.4611 17.5867 19.4571C17.4351 17.9636 16.8571 16.6794 15.8527 15.6044C15.674 15.4129 15.4856 15.2335 15.2874 15.0661Z" fill="white" fill-opacity="0.74"/>
</g>
<defs>
<clipPath id="clip0_1_1027">
<rect width="20" height="20" fill="white" transform="translate(0 0.660889)"/>
</clipPath>
</defs>
</svg>
