<svg width="20" height="17" viewBox="0 0 20 17" fill="none" xmlns="http://www.w3.org/2000/svg">
<g clip-path="url(#clip0_1_1019)">
<path d="M15.9105 0.852295H16.0863C17.0999 0.879906 17.9642 1.14503 18.6793 1.64767C19.523 2.24101 19.9633 2.99678 20 3.915V3.95278C19.987 4.22506 19.9512 4.45119 19.8926 4.63117C19.6176 5.47743 19.0174 6.12055 18.0922 6.56051C17.8706 6.66591 17.6368 6.75358 17.391 6.82352C16.4632 7.08713 15.5363 7.08512 14.6105 6.81747C14.3605 6.74532 14.1272 6.65674 13.9105 6.55174C13.4387 6.3234 13.0432 6.03026 12.7242 5.67232C12.7183 5.66575 12.7094 5.6611 12.6993 5.65926C12.6892 5.65742 12.6786 5.65852 12.6695 5.66235L9.19883 7.09741C9.15586 7.11535 9.1431 7.14185 9.16055 7.17692C9.64466 8.14794 9.64076 9.10021 9.14883 10.0337C9.1449 10.0411 9.14465 10.0493 9.14811 10.0568C9.15158 10.0643 9.15851 10.0705 9.16758 10.0743L12.6664 11.5217C12.677 11.526 12.6891 11.5272 12.7007 11.5251C12.7122 11.523 12.7222 11.5177 12.7289 11.5102C13.1849 10.9989 13.7832 10.6262 14.5238 10.392C15.4616 10.0957 16.4246 10.0843 17.4129 10.3578C17.5444 10.3943 17.6328 10.4523 17.6781 10.532C17.7393 10.6392 17.7299 10.7364 17.65 10.8237C17.5995 10.8787 17.535 10.9176 17.4566 10.9404C17.3717 10.965 17.2853 10.9655 17.1973 10.9419C16.202 10.6754 15.2773 10.7302 14.4234 11.106C14.1909 11.2084 13.9822 11.3281 13.7973 11.4652C13.4259 11.7403 13.1565 12.0667 12.9891 12.4444C12.9044 12.6352 12.8513 12.8319 12.8297 13.0345C12.7766 13.5337 12.9087 14.0111 13.2262 14.4668C13.2382 14.4839 13.249 14.4835 13.2586 14.4656C13.4953 14.0152 13.9341 13.7199 14.575 13.5798C14.5796 13.5788 14.5838 13.5771 14.5874 13.5746C14.591 13.5722 14.5938 13.5691 14.5956 13.5657C14.5974 13.5623 14.5983 13.5587 14.598 13.555C14.5978 13.5513 14.5964 13.5477 14.5941 13.5445C14.4697 13.3681 14.399 13.1883 14.382 13.0051C14.3706 12.878 14.3711 12.7512 14.3836 12.6248C14.3979 12.4842 14.4288 12.3603 14.4762 12.2533C14.5905 11.9955 14.7911 11.7902 15.0781 11.6372C15.4432 11.4425 15.8352 11.3712 16.2539 11.4232C16.5156 11.4556 16.7543 11.5314 16.9699 11.6505C17.371 11.8722 17.5947 12.1928 17.641 12.6124C17.6595 12.7797 17.6546 12.9464 17.6262 13.1125C17.5996 13.2685 17.5346 13.4142 17.4312 13.5496C17.4291 13.5525 17.4279 13.5556 17.4276 13.5589C17.4274 13.5622 17.4281 13.5655 17.4298 13.5685C17.4315 13.5715 17.434 13.5742 17.4372 13.5763C17.4405 13.5785 17.4443 13.58 17.4484 13.5807C18.0576 13.6993 18.4982 13.9927 18.7703 14.4611C18.7805 14.4784 18.7913 14.4787 18.8027 14.462C19.2259 13.8443 19.3203 13.209 19.0859 12.5562C19.0789 12.5365 19.0538 12.4789 19.0105 12.3836C18.9733 12.3014 18.9581 12.2415 18.9648 12.204C18.9878 12.0756 19.0652 11.9895 19.1973 11.9456C19.2892 11.9149 19.3829 11.911 19.4785 11.9338C19.584 11.9588 19.6594 12.0117 19.7047 12.0925C19.8802 12.4069 19.9786 12.7621 20 13.1581V13.3244C19.9586 14.0826 19.6323 14.7313 19.0211 15.2707C18.2544 15.9466 17.2648 16.2999 16.0523 16.3306H15.984C14.7642 16.2961 13.7715 15.9395 13.0059 15.2607C12.8301 15.1049 12.6792 14.9409 12.5531 14.7688C12.1714 14.2476 12.0026 13.6775 12.0469 13.0584C12.0708 12.7238 12.1643 12.3991 12.3273 12.0843C12.3294 12.0804 12.3295 12.0761 12.3276 12.0721C12.3257 12.0682 12.322 12.0649 12.3172 12.0628L8.79609 10.6036C8.78806 10.6002 8.77869 10.5993 8.7698 10.6009C8.76091 10.6026 8.75316 10.6068 8.74805 10.6127C8.09622 11.3572 7.22904 11.8583 6.14648 12.1161C5.89492 12.1759 5.64089 12.2187 5.38437 12.2445C4.60885 12.3225 3.85651 12.258 3.12734 12.0511C2.15234 11.7741 1.37109 11.2955 0.783594 10.6151C0.288021 10.0409 0.0268229 9.39093 0 8.66519V8.49136C0.0304687 7.93773 0.209505 7.40425 0.537109 6.89093C0.602734 6.78815 0.695573 6.72517 0.815625 6.70199C0.925781 6.68083 1.03398 6.69766 1.14023 6.75247C1.31654 6.84357 1.3474 6.98102 1.23281 7.16483C0.635156 8.12395 0.64375 9.0851 1.25859 10.0483C1.26979 10.066 1.2806 10.0658 1.29102 10.0477C1.63685 9.43356 2.23164 9.06101 3.07539 8.93001C3.08191 8.92901 3.088 8.92677 3.09313 8.9235C3.09826 8.92022 3.10226 8.91602 3.10477 8.91126C3.10729 8.9065 3.10824 8.90133 3.10754 8.89621C3.10685 8.8911 3.10452 8.8862 3.10078 8.88194C2.92839 8.68685 2.81927 8.46657 2.77344 8.2211C2.75104 8.10158 2.74323 7.94186 2.75 7.74193C2.75651 7.5545 2.78307 7.3971 2.82969 7.26973C2.99297 6.82332 3.34609 6.49612 3.88906 6.28813C4.38724 6.09727 4.8888 6.07097 5.39375 6.20922C5.64062 6.27674 5.8655 6.376 6.06836 6.507C6.47253 6.76799 6.7056 7.10759 6.76758 7.52578C6.78997 7.67633 6.79128 7.85752 6.77148 8.06934C6.75586 8.23923 6.72253 8.38223 6.67148 8.49831C6.61107 8.63637 6.52825 8.76838 6.42305 8.89434C6.42081 8.89706 6.41946 8.90016 6.41911 8.90337C6.41876 8.90658 6.41942 8.90981 6.42103 8.91278C6.42264 8.91575 6.42516 8.91837 6.42837 8.92043C6.43158 8.92248 6.43538 8.9239 6.43945 8.92457C6.62096 8.9546 6.7974 8.99692 6.96875 9.05154C7.14896 9.10878 7.3099 9.1773 7.45156 9.25711C7.80312 9.45543 8.06341 9.71692 8.23242 10.0416C8.24727 10.0702 8.26393 10.0708 8.28242 10.0434C8.44961 9.79391 8.57279 9.52939 8.65195 9.24986C8.70664 9.05577 8.73646 8.85615 8.74141 8.65098C8.76016 7.86901 8.44479 7.18347 7.79531 6.59437C7.17656 6.03308 6.39336 5.68895 5.4457 5.56198C5.18242 5.52691 4.92331 5.51149 4.66836 5.51573C4.06029 5.526 3.48047 5.63897 2.92891 5.85461C2.88568 5.87154 2.84089 5.88515 2.79453 5.89543C2.74714 5.90611 2.69987 5.90903 2.65273 5.90419C2.49336 5.88787 2.38815 5.8266 2.33711 5.72039C2.29857 5.64038 2.30013 5.5646 2.3418 5.49305C2.38398 5.4205 2.46029 5.36306 2.5707 5.32074C3.50456 4.9632 4.4694 4.83895 5.46523 4.94799C5.72331 4.9764 5.97643 5.02215 6.22461 5.08524C7.25898 5.34845 8.09883 5.84222 8.74414 6.56655C8.75069 6.57392 8.7605 6.57916 8.77167 6.58128C8.78284 6.5834 8.7946 6.58225 8.80469 6.57804L12.3055 5.12786C12.3133 5.12461 12.3193 5.11928 12.3224 5.11287C12.3255 5.10647 12.3255 5.09943 12.3223 5.0931C11.9551 4.35143 11.9402 3.61107 12.2777 2.87203C12.3285 2.76078 12.4104 2.68641 12.5234 2.64892C12.6326 2.61285 12.7449 2.61889 12.8605 2.66706C12.9936 2.72269 13.0568 2.81036 13.05 2.93007C13.0482 2.96232 13.0189 3.052 12.9621 3.19913C12.703 3.87106 12.7908 4.52284 13.2254 5.15447C13.2379 5.1726 13.2491 5.1722 13.259 5.15326C13.5066 4.68589 13.9475 4.39133 14.5816 4.2696C14.5855 4.26889 14.5891 4.26749 14.5921 4.26551C14.5951 4.26353 14.5975 4.26103 14.5991 4.25821C14.6006 4.25539 14.6013 4.25233 14.6011 4.24927C14.6008 4.24621 14.5997 4.24323 14.5977 4.24058C14.5065 4.11744 14.4445 3.98795 14.4117 3.85211C14.3859 3.74469 14.3727 3.60876 14.3719 3.4443C14.3711 3.28407 14.3949 3.1431 14.4434 3.02137C14.6204 2.57657 14.9883 2.28686 15.5469 2.15223C15.8062 2.08975 16.0668 2.07917 16.3285 2.12048C16.5809 2.16019 16.8103 2.24201 17.0168 2.36596C17.2418 2.50099 17.4103 2.6724 17.5223 2.88019C17.5822 2.99144 17.6216 3.11982 17.6406 3.26533C17.6578 3.39754 17.6616 3.53046 17.652 3.66408C17.6374 3.85957 17.566 4.04972 17.4379 4.23454C17.4355 4.23802 17.4341 4.24189 17.4339 4.24584C17.4338 4.24979 17.4347 4.25373 17.4368 4.25734C17.4389 4.26095 17.442 4.26416 17.4459 4.2667C17.4498 4.26924 17.4544 4.27107 17.4594 4.27202C18.0849 4.39436 18.5208 4.68689 18.7672 5.14963C18.7786 5.17099 18.7915 5.1715 18.8059 5.15114C18.9309 4.97378 19.028 4.78907 19.0973 4.59701C19.1639 4.41219 19.2001 4.2162 19.2059 4.00901C19.2262 3.27642 18.9029 2.66021 18.2359 2.16039C18.0448 2.0175 17.8376 1.89617 17.6145 1.79641C16.9738 1.51022 16.2764 1.40875 15.5223 1.49198C15.4176 1.50347 15.2812 1.52836 15.1133 1.56665C15.0188 1.58822 14.924 1.60888 14.8289 1.62863C14.7312 1.64898 14.6492 1.65241 14.5828 1.6389C14.4411 1.61029 14.3521 1.54257 14.3156 1.43575C14.2878 1.35393 14.2979 1.27926 14.3461 1.21174C14.3964 1.1412 14.4784 1.09001 14.5922 1.05817C15.0307 0.935833 15.4702 0.867209 15.9105 0.852295ZM15.3676 2.93551C15.2496 3.0391 15.1824 3.17605 15.166 3.34635C15.1535 3.47554 15.157 3.59233 15.1766 3.69673C15.2 3.82027 15.2553 3.92638 15.3426 4.01506C15.4556 4.13034 15.6021 4.20753 15.782 4.24663C15.9477 4.2825 16.1158 4.27867 16.2863 4.23514C16.5535 4.16682 16.7328 4.02544 16.8242 3.811C16.8526 3.74429 16.8691 3.65995 16.8738 3.55797C16.879 3.44611 16.8762 3.36046 16.8652 3.301C16.8254 3.08596 16.7036 2.92543 16.5 2.81942C16.326 2.72873 16.1354 2.69054 15.9281 2.70485C15.7125 2.71976 15.5257 2.79665 15.3676 2.93551ZM14.148 5.1584C13.9803 5.32991 13.9038 5.53759 13.9184 5.78146C13.9188 5.79065 13.9219 5.79967 13.9273 5.80791C13.9327 5.81615 13.9403 5.82341 13.9496 5.82922C14.5574 6.21497 15.2423 6.40935 16.0043 6.41238C16.2707 6.41338 16.5286 6.39001 16.7781 6.34224C17.2474 6.25215 17.6751 6.08528 18.0613 5.84162C18.0975 5.81864 18.1155 5.78911 18.1152 5.75304C18.1126 5.31489 17.862 5.02407 17.3633 4.88057C17.2547 4.84933 17.0495 4.80762 16.7477 4.75542C16.7352 4.75326 16.7224 4.75422 16.7109 4.75814C16.2443 4.91816 15.7776 4.91826 15.3109 4.75844C15.2993 4.75433 15.2862 4.75326 15.2738 4.75542C15.1642 4.77517 15.0552 4.79663 14.9469 4.81981C14.7482 4.86213 14.634 4.88763 14.6043 4.89629C14.4184 4.9499 14.2663 5.03727 14.148 5.1584ZM5.57891 6.97951C5.36042 6.83097 5.11758 6.75036 4.85039 6.73766C4.59648 6.72577 4.35443 6.77283 4.12422 6.87884C3.81562 7.02072 3.62578 7.24 3.55469 7.53667C3.54167 7.59088 3.53516 7.6595 3.53516 7.74254C3.53516 7.81147 3.53529 7.88029 3.53555 7.94902C3.53607 8.34988 3.7362 8.64171 4.13594 8.82451C4.29818 8.89867 4.46602 8.94362 4.63945 8.95934C4.82747 8.97627 5.00872 8.95883 5.1832 8.90704C5.64336 8.77039 5.91107 8.50648 5.98633 8.11529C6.01211 7.98126 6.01289 7.82386 5.98867 7.64308C5.96862 7.49293 5.93099 7.37261 5.87578 7.28212C5.80573 7.16724 5.70677 7.06637 5.57891 6.97951ZM1.95078 10.7705C2.775 11.3811 3.73958 11.6806 4.84453 11.6689C5.11016 11.6661 5.36836 11.6432 5.61914 11.6003C6.37409 11.4709 7.03138 11.1914 7.59102 10.7617C7.60005 10.7549 7.60536 10.7456 7.60586 10.7357C7.61784 10.4354 7.51497 10.1811 7.29727 9.97268C7.07435 9.75905 6.79088 9.61686 6.44687 9.54612C6.19974 9.49553 5.95625 9.44767 5.71641 9.40252C5.69795 9.399 5.67838 9.40049 5.66094 9.40675C5.05339 9.62059 4.45482 9.62049 3.86523 9.40645C3.85385 9.40234 3.84093 9.40128 3.82852 9.40343C3.50951 9.45845 3.2319 9.51468 2.9957 9.57212C2.47409 9.69848 2.13503 9.96704 1.97852 10.3778C1.93945 10.4804 1.92148 10.5959 1.92461 10.7245C1.92486 10.7332 1.9273 10.7417 1.93179 10.7495C1.93628 10.7574 1.94273 10.7645 1.95078 10.7705ZM15.4762 13.4299C15.6475 13.5381 15.8333 13.5893 16.0336 13.5835C16.2221 13.5778 16.3949 13.5277 16.552 13.4332C16.779 13.2964 16.8854 13.0982 16.8711 12.8386C16.8685 12.79 16.8668 12.7413 16.866 12.6926C16.8647 12.6295 16.8599 12.5811 16.8516 12.5475C16.8107 12.3804 16.7053 12.2477 16.5355 12.1493C16.3345 12.0326 16.1217 11.9887 15.8973 12.0175C15.6863 12.0447 15.5109 12.1194 15.3711 12.2415C15.2289 12.3653 15.1564 12.5216 15.1535 12.7104C15.152 12.8225 15.1561 12.9157 15.166 12.99C15.19 13.1678 15.2934 13.3144 15.4762 13.4299ZM13.9422 15.1334C14.7422 15.6358 15.6482 15.8157 16.6602 15.673C17.1784 15.5999 17.656 15.4174 18.093 15.1255C18.0977 15.1224 18.1015 15.1185 18.1043 15.1142C18.107 15.1099 18.1086 15.1052 18.109 15.1005C18.1366 14.6047 17.8457 14.2918 17.2363 14.1618C17.0743 14.1271 16.9113 14.0954 16.7473 14.0666C16.7351 14.0644 16.7223 14.0654 16.7109 14.0693C16.2443 14.2281 15.7776 14.2282 15.3109 14.0696C15.2993 14.0655 15.2862 14.0645 15.2738 14.0669C15.1139 14.0971 14.9543 14.1285 14.7949 14.1612C14.2113 14.2809 13.9184 14.5905 13.916 15.0899C13.9159 15.0982 13.9182 15.1064 13.9227 15.1139C13.9272 15.1215 13.9339 15.1281 13.9422 15.1334Z" fill="white" fill-opacity="0.74"/>
<path d="M13.4718 2.26722C13.6841 2.26722 13.8562 2.13389 13.8562 1.96942C13.8562 1.80496 13.6841 1.67163 13.4718 1.67163C13.2595 1.67163 13.0874 1.80496 13.0874 1.96942C13.0874 2.13389 13.2595 2.26722 13.4718 2.26722Z" fill="white" fill-opacity="0.74"/>
<path d="M1.67021 6.49682C1.88315 6.49682 2.05576 6.36308 2.05576 6.19812C2.05576 6.03315 1.88315 5.89941 1.67021 5.89941C1.45728 5.89941 1.28467 6.03315 1.28467 6.19812C1.28467 6.36308 1.45728 6.49682 1.67021 6.49682Z" fill="white" fill-opacity="0.74"/>
<path d="M18.5571 11.5784C18.7696 11.5784 18.9419 11.4449 18.9419 11.2803C18.9419 11.1156 18.7696 10.9822 18.5571 10.9822C18.3446 10.9822 18.1724 11.1156 18.1724 11.2803C18.1724 11.4449 18.3446 11.5784 18.5571 11.5784Z" fill="white" fill-opacity="0.74"/>
</g>
<defs>
<clipPath id="clip0_1_1019">
<rect width="20" height="15.4783" fill="white" transform="translate(0 0.852295)"/>
</clipPath>
</defs>
</svg>
