<svg width="41" height="40" viewBox="0 0 41 40" fill="none" xmlns="http://www.w3.org/2000/svg">
<circle cx="20.6062" cy="20" r="20" fill="#133D7A"/>
<path d="M19.1121 26L18.1345 23.2246H14.3132L13.3357 26H11.6062L15.325 15.9648H17.1433L20.8552 26H19.1121ZM17.7107 21.8164L16.7605 19.082C16.724 18.9635 16.6716 18.7972 16.6033 18.583C16.5349 18.3643 16.4666 18.1432 16.3982 17.9199C16.3298 17.6921 16.2729 17.5007 16.2273 17.3457C16.1817 17.5326 16.1248 17.7422 16.0564 17.9746C15.9926 18.2025 15.9288 18.4167 15.865 18.6172C15.8057 18.8177 15.7602 18.9727 15.7283 19.082L14.7712 21.8164H17.7107ZM29.7966 26H27.9099L24.7996 21.4609L23.8152 22.2607V26H22.1746V16.0059H23.8152V20.7842C24.0157 20.5381 24.2185 20.292 24.4236 20.0459C24.6287 19.7998 24.8337 19.5537 25.0388 19.3076L27.8552 16.0059H29.7078L25.9753 20.3809L29.7966 26Z" fill="white"/>
</svg>
