<svg width="25" height="24" viewBox="0 0 25 24" fill="none" xmlns="http://www.w3.org/2000/svg">
<g clip-path="url(#clip0_156_230)">
<path d="M11.7009 0.00012207H14.1384C14.7569 0.0835596 15.1781 0.385278 15.4022 0.905278C15.4631 1.04653 15.512 1.26059 15.5489 1.54747C15.6189 2.08965 15.6908 2.63153 15.7645 3.17309C15.7654 3.18009 15.7683 3.18672 15.7728 3.1922C15.7774 3.19768 15.7835 3.20178 15.7903 3.20403C16.2375 3.3534 16.6737 3.53575 17.0991 3.75106C17.1097 3.7564 17.1217 3.75862 17.1337 3.75746C17.1456 3.7563 17.157 3.75181 17.1666 3.7445C17.6528 3.3645 18.1439 2.98543 18.6398 2.60731C19.0095 2.32606 19.4245 2.23434 19.8848 2.33215C20.1598 2.3909 20.3964 2.51918 20.5945 2.717C21.1089 3.22981 21.6228 3.74325 22.1362 4.25731C22.6212 4.74262 22.7509 5.28575 22.5253 5.88668C22.4728 6.027 22.3755 6.19168 22.2333 6.38075C21.8877 6.84012 21.5398 7.28793 21.1898 7.72418C21.1778 7.73932 21.1702 7.7575 21.1679 7.77665C21.1657 7.7958 21.1689 7.81514 21.1772 7.83247C21.3878 8.26684 21.5652 8.69465 21.7092 9.1159C21.7131 9.12701 21.7201 9.1368 21.7293 9.14417C21.7385 9.15154 21.7495 9.1562 21.7612 9.15762C22.2656 9.222 22.7597 9.28528 23.2434 9.34747C23.6053 9.39403 23.8641 9.45075 24.0197 9.51762C24.5428 9.74262 24.8419 10.1726 24.9169 10.8076V13.2334C24.8206 13.8575 24.5152 14.2764 24.0005 14.4901C23.843 14.5557 23.5505 14.6148 23.123 14.6673C22.677 14.7223 22.2203 14.7812 21.7528 14.844C21.7434 14.8453 21.7345 14.8492 21.7272 14.8552C21.7199 14.8613 21.7145 14.8693 21.7116 14.8782C21.5619 15.3195 21.3802 15.755 21.1664 16.1847C21.1619 16.1938 21.16 16.204 21.161 16.2142C21.162 16.2244 21.1658 16.2341 21.172 16.2423C21.5483 16.7295 21.925 17.2179 22.3022 17.7076C22.4847 17.9442 22.5906 18.194 22.62 18.4572C22.6584 18.8022 22.595 19.1118 22.4297 19.3862C22.365 19.4934 22.162 19.7178 21.8208 20.0593C21.4123 20.4678 21.0039 20.8761 20.5955 21.2842C20.3358 21.5442 20.025 21.6856 19.6631 21.7084C19.4753 21.72 19.2925 21.6984 19.1147 21.6437C18.9316 21.5875 18.765 21.5009 18.615 21.384C17.9125 20.8359 17.4255 20.4587 17.1539 20.2525C17.1484 20.2482 17.1418 20.2456 17.1347 20.245C17.1277 20.2443 17.1205 20.2456 17.1141 20.2487C16.6903 20.4565 16.2497 20.6376 15.7922 20.792C15.7839 20.7946 15.7765 20.7996 15.7709 20.8063C15.7653 20.813 15.7616 20.8212 15.7603 20.83C15.6934 21.3415 15.6278 21.8553 15.5634 22.3712C15.5228 22.6968 15.4712 22.934 15.4087 23.0828C15.1869 23.6093 14.7616 23.9151 14.1328 24.0001H11.707C11.0845 23.9207 10.6592 23.6195 10.4311 23.0964C10.3695 22.9561 10.3211 22.7489 10.2858 22.4748C10.2164 21.9398 10.1462 21.395 10.0753 20.8403C10.0739 20.8287 10.0693 20.8177 10.0619 20.8087C10.0545 20.7996 10.0447 20.7929 10.0336 20.7892C9.59015 20.6407 9.15562 20.4611 8.72999 20.2501C8.72005 20.2452 8.70891 20.2432 8.69787 20.2444C8.68683 20.2455 8.67636 20.2498 8.66765 20.2567C8.25328 20.5829 7.84234 20.9023 7.43484 21.2148C7.16921 21.4182 6.95843 21.5503 6.8025 21.6109C6.38031 21.775 5.97015 21.747 5.57203 21.527C5.4364 21.452 5.26656 21.3125 5.0625 21.1084C4.70125 20.7472 4.34 20.3859 3.97874 20.0247C3.69593 19.7422 3.53843 19.5795 3.50625 19.5367C3.36406 19.3489 3.27156 19.1368 3.22874 18.9006C3.19718 18.7262 3.19671 18.5556 3.22734 18.3887C3.25859 18.2175 3.3189 18.0547 3.40828 17.9003C3.45546 17.8187 3.55953 17.6732 3.72046 17.4639C4.01921 17.0754 4.33015 16.6734 4.65328 16.2578C4.66226 16.2462 4.66781 16.2324 4.6693 16.2179C4.6708 16.2034 4.66817 16.1888 4.66171 16.1757C4.45515 15.7639 4.27718 15.3329 4.12781 14.8829C4.12444 14.8726 4.11821 14.8634 4.10983 14.8564C4.10145 14.8494 4.09127 14.845 4.08046 14.8436C3.55796 14.7748 3.04765 14.7093 2.54953 14.6472C2.21921 14.6059 1.97937 14.5537 1.83 14.4906C1.305 14.2693 1.00062 13.8445 0.91687 13.2161V10.7786C0.994995 10.1745 1.28812 9.75653 1.79625 9.52465C1.93187 9.46309 2.12453 9.41512 2.37421 9.38075C2.93796 9.30356 3.50046 9.23168 4.06171 9.16512C4.07573 9.16345 4.08898 9.1579 4.09993 9.14911C4.11087 9.14032 4.11907 9.12864 4.12359 9.11543C4.27828 8.66981 4.45593 8.2434 4.65656 7.83622C4.66511 7.81911 4.66859 7.79992 4.6666 7.7809C4.66461 7.76188 4.65722 7.74383 4.64531 7.72887C4.31312 7.30919 3.98328 6.8845 3.65578 6.45481C3.47765 6.22075 3.36031 6.02903 3.30375 5.87965C3.14374 5.45934 3.17171 5.05137 3.38765 4.65575C3.45921 4.52481 3.58828 4.3659 3.77484 4.17903C4.20609 3.74809 4.63718 3.317 5.06812 2.88575C5.16437 2.78981 5.24859 2.70965 5.32078 2.64528C5.41265 2.56403 5.50796 2.49872 5.60671 2.44934C6.03484 2.23497 6.47843 2.232 6.9375 2.44043C7.04375 2.48887 7.18656 2.58418 7.36593 2.72637C7.80062 3.07137 8.23859 3.41184 8.67984 3.74778C8.68535 3.75201 8.69199 3.7546 8.69902 3.75526C8.70606 3.75592 8.71321 3.75463 8.71968 3.75153C9.14437 3.54778 9.5839 3.36575 10.0383 3.20543C10.049 3.20162 10.0584 3.19491 10.0655 3.18606C10.0726 3.1772 10.0772 3.16655 10.0786 3.15528C10.1352 2.7059 10.1917 2.25543 10.2483 1.80387C10.3042 1.357 10.367 1.05231 10.4367 0.88981C10.6542 0.382622 11.0756 0.0860596 11.7009 0.00012207ZM5.55843 20.1981C5.70624 20.3534 5.82312 20.4684 5.90906 20.5431C6.15968 20.7603 6.4175 20.7564 6.6825 20.5314C6.84656 20.392 7.36765 19.9897 8.24578 19.3243C8.37921 19.2231 8.48937 19.167 8.57624 19.1561C8.70718 19.1401 8.84249 19.1718 8.98218 19.2512C9.36812 19.4703 9.82718 19.6673 10.3594 19.8423C10.6187 19.9276 10.7594 19.9768 10.7812 19.99C10.9234 20.0756 11.0064 20.2131 11.0302 20.4025C11.1123 21.054 11.1942 21.7057 11.2758 22.3576C11.2977 22.5323 11.3272 22.6554 11.3644 22.727C11.4322 22.8586 11.5355 22.9437 11.6742 22.9825C11.7252 22.9965 11.898 23.0043 12.1927 23.0059C12.7745 23.0084 13.3564 23.005 13.9383 22.9956C14.0992 22.9931 14.2184 22.9695 14.2959 22.9248C14.4319 22.8467 14.5103 22.7237 14.5312 22.5559C14.6147 21.8806 14.7017 21.2059 14.7923 20.5318C14.7927 20.53 14.7964 20.4884 14.8036 20.4072C14.8161 20.27 14.8664 20.1579 14.9545 20.0711C15.0133 20.0129 15.1327 19.9553 15.3127 19.8981C15.8698 19.7209 16.4064 19.4939 16.9223 19.217C17.1305 19.1054 17.3227 19.1178 17.4989 19.254C18.0611 19.6878 18.6216 20.1237 19.1803 20.5618C19.4537 20.7762 19.7145 20.7592 19.9627 20.5107C20.4627 20.0107 20.9627 19.5107 21.4627 19.0107C21.6086 18.8648 21.6598 18.7057 21.6164 18.5336C21.5945 18.4482 21.5159 18.3186 21.3806 18.1445C20.9912 17.6448 20.6027 17.1445 20.2148 16.6436C20.0886 16.4811 20.0423 16.3195 20.0761 16.1589C20.0808 16.1367 20.1462 15.9965 20.2725 15.7384C20.4572 15.3609 20.6178 14.9734 20.7544 14.5759C20.8516 14.2922 20.9025 14.1465 20.9072 14.139C20.9947 13.994 21.1398 13.91 21.3427 13.8868C21.6598 13.8509 22.3137 13.7668 23.3044 13.6347C23.5034 13.6081 23.6417 13.5662 23.7192 13.509C23.8536 13.4103 23.9208 13.2628 23.9208 13.0665C23.9208 12.4103 23.9239 11.754 23.9302 11.0978C23.9314 10.9581 23.9205 10.8448 23.8973 10.7579C23.8627 10.627 23.7911 10.5284 23.6827 10.4622C23.618 10.4228 23.5072 10.3928 23.3503 10.3722C22.7116 10.289 22.0728 10.2064 21.4341 10.1242C21.2675 10.1026 21.1545 10.0767 21.0952 10.0464C20.9805 9.98731 20.9028 9.89247 20.8622 9.76184C20.6628 9.11997 20.4245 8.54528 20.1473 8.03778C20.0517 7.86278 20.0348 7.69809 20.0967 7.54372C20.1158 7.49653 20.2042 7.37168 20.362 7.16918C20.7327 6.69293 21.1022 6.21575 21.4706 5.73762C21.5406 5.647 21.5848 5.57278 21.6033 5.51497C21.632 5.42465 21.6353 5.33528 21.6131 5.24684C21.5922 5.16278 21.5244 5.06184 21.4097 4.94403C20.9259 4.4459 20.4347 3.95497 19.9359 3.47122C19.855 3.39278 19.7828 3.34231 19.7194 3.31981C19.6275 3.287 19.5359 3.28168 19.4447 3.30387C19.37 3.32168 19.2623 3.38512 19.1217 3.49418C18.6598 3.85262 18.1973 4.21059 17.7342 4.56809C17.5395 4.7184 17.4202 4.80262 17.3761 4.82075C17.2283 4.88106 17.0714 4.86637 16.9055 4.77668C16.4177 4.51262 15.9098 4.29559 15.382 4.12559C15.3795 4.12465 15.3291 4.11137 15.2306 4.08575C15.0916 4.04981 14.9839 3.9784 14.9077 3.87153C14.8523 3.79403 14.8127 3.65934 14.7886 3.46747C14.7164 2.89184 14.6433 2.31653 14.5692 1.74153C14.5405 1.51684 14.5234 1.39543 14.5181 1.37731C14.4791 1.24387 14.4002 1.14278 14.2814 1.07403C14.2064 1.03028 14.0967 1.007 13.9523 1.00418C13.2433 0.989497 12.5344 0.98981 11.8256 1.00512C11.7212 1.00731 11.6394 1.02372 11.58 1.05434C11.4991 1.09653 11.4342 1.15465 11.3855 1.22872C11.3417 1.2959 11.3091 1.41137 11.2875 1.57512C11.2037 2.21606 11.1216 2.85715 11.0409 3.4984C11.0203 3.66403 10.9887 3.78043 10.9462 3.84762C10.8772 3.95637 10.7736 4.03137 10.6355 4.07262C10.1139 4.22825 9.61015 4.42793 9.12421 4.67168C9.12265 4.67231 9.0689 4.70387 8.96296 4.76637C8.83359 4.84231 8.70015 4.86793 8.56265 4.84325C8.47046 4.82668 8.35421 4.76403 8.2139 4.65528C7.6839 4.24434 7.1539 3.83325 6.6239 3.422C6.47265 3.3045 6.31812 3.26606 6.16031 3.30668C6.07593 3.32856 5.97703 3.3945 5.86359 3.5045C5.29078 4.05981 4.78734 4.5645 4.35328 5.01856C4.23015 5.14762 4.18281 5.28856 4.21125 5.44137C4.22718 5.52856 4.29328 5.647 4.40953 5.79668C4.74015 6.22293 5.07015 6.64981 5.39953 7.07731C5.59828 7.33543 5.70328 7.47622 5.71453 7.49965C5.80078 7.67934 5.7864 7.86965 5.6714 8.07059C5.62171 8.15747 5.59625 8.202 5.595 8.20418C5.34468 8.68919 5.14234 9.19403 4.98796 9.71872C4.94609 9.8609 4.8689 9.96575 4.7564 10.0332C4.6914 10.0723 4.57312 10.1031 4.40156 10.1256C3.72156 10.2147 3.0414 10.3014 2.36109 10.3857C2.19328 10.4067 2.06984 10.4872 1.99078 10.6272C1.94703 10.7043 1.9239 10.8193 1.9214 10.9722C1.91046 11.6662 1.90734 12.3604 1.91203 13.0548C1.91328 13.2595 1.98296 13.412 2.12109 13.5123C2.19734 13.5679 2.33109 13.6081 2.52234 13.6328C3.15984 13.7143 3.79718 13.7961 4.43437 13.8779C4.58281 13.897 4.68749 13.9236 4.74843 13.9576C4.85312 14.0167 4.92453 14.1054 4.96265 14.2239C5.17015 14.8657 5.40906 15.4489 5.67937 15.9732C5.73249 16.0767 5.76187 16.1609 5.7675 16.2259C5.77562 16.3231 5.75921 16.414 5.71828 16.4987C5.70671 16.5228 5.63031 16.6257 5.48906 16.8076C5.12562 17.2764 4.76265 17.7454 4.40015 18.2148C4.29265 18.3539 4.22968 18.4634 4.21125 18.5434C4.17781 18.6868 4.21156 18.8192 4.3125 18.9404C4.44375 19.0986 4.74359 19.4014 5.21203 19.8489C5.31546 19.9476 5.43093 20.064 5.55843 20.1981Z" fill="black"/>
<path d="M17.9119 11.9996C17.9119 13.3246 17.3855 14.5953 16.4486 15.5323C15.5117 16.4692 14.2409 16.9955 12.9159 16.9955C11.5909 16.9955 10.3202 16.4692 9.38326 15.5323C8.44634 14.5953 7.91998 13.3246 7.91998 11.9996C7.91998 10.6746 8.44634 9.40386 9.38326 8.46694C10.3202 7.53002 11.5909 7.00366 12.9159 7.00366C14.2409 7.00366 15.5117 7.53002 16.4486 8.46694C17.3855 9.40386 17.9119 10.6746 17.9119 11.9996ZM16.913 11.9996C16.913 10.9395 16.4918 9.92286 15.7422 9.17327C14.9927 8.42368 13.976 8.00257 12.9159 8.00257C11.8558 8.00257 10.8392 8.42368 10.0896 9.17327C9.34 9.92286 8.91889 10.9395 8.91889 11.9996C8.91889 13.0597 9.34 14.0763 10.0896 14.8259C10.8392 15.5755 11.8558 15.9966 12.9159 15.9966C13.976 15.9966 14.9927 15.5755 15.7422 14.8259C16.4918 14.0763 16.913 13.0597 16.913 11.9996Z" fill="black"/>
</g>
<defs>
<clipPath id="clip0_156_230">
<rect width="24" height="24" fill="white" transform="translate(0.91687 0.00012207)"/>
</clipPath>
</defs>
</svg>
